<svg width="108" height="104" viewBox="0 0 108 104" fill="none" xmlns="http://www.w3.org/2000/svg">
<rect x="6" width="95" height="100" rx="10" fill="#D61A31"/>
<g filter="url(#filter0_d_3_14)">
<path d="M4 10C4 4.47715 8.47715 0 14 0H94C99.5228 0 104 4.47715 104 10V86C104 91.5228 99.5228 96 94 96H14C8.47716 96 4 91.5228 4 86V10Z" fill="#F51B35"/>
</g>
<g filter="url(#filter1_d_3_14)">
<path d="M26 44L41.6703 63.8183C42.3893 64.7276 43.7282 64.8372 44.5854 64.0569L82 30" stroke="white" stroke-width="10"/>
<circle cx="82" cy="30" r="5" fill="white"/>
<circle cx="26" cy="44" r="5" fill="white"/>
</g>
<defs>
<filter id="filter0_d_3_14" x="0" y="0" width="108" height="104" filterUnits="userSpaceOnUse" color-interpolation-filters="sRGB">
<feFlood flood-opacity="0" result="BackgroundImageFix"/>
<feColorMatrix in="SourceAlpha" type="matrix" values="0 0 0 0 0 0 0 0 0 0 0 0 0 0 0 0 0 0 127 0" result="hardAlpha"/>
<feOffset dy="4"/>
<feGaussianBlur stdDeviation="2"/>
<feComposite in2="hardAlpha" operator="out"/>
<feColorMatrix type="matrix" values="0 0 0 0 0 0 0 0 0 0 0 0 0 0 0 0 0 0 0.25 0"/>
<feBlend mode="normal" in2="BackgroundImageFix" result="effect1_dropShadow_3_14"/>
<feBlend mode="normal" in="SourceGraphic" in2="effect1_dropShadow_3_14" result="shape"/>
</filter>
<filter id="filter1_d_3_14" x="19" y="25" width="70" height="50.578" filterUnits="userSpaceOnUse" color-interpolation-filters="sRGB">
<feFlood flood-opacity="0" result="BackgroundImageFix"/>
<feColorMatrix in="SourceAlpha" type="matrix" values="0 0 0 0 0 0 0 0 0 0 0 0 0 0 0 0 0 0 127 0" result="hardAlpha"/>
<feOffset dy="4"/>
<feGaussianBlur stdDeviation="1"/>
<feComposite in2="hardAlpha" operator="out"/>
<feColorMatrix type="matrix" values="0 0 0 0 0 0 0 0 0 0 0 0 0 0 0 0 0 0 0.25 0"/>
<feBlend mode="normal" in2="BackgroundImageFix" result="effect1_dropShadow_3_14"/>
<feBlend mode="normal" in="SourceGraphic" in2="effect1_dropShadow_3_14" result="shape"/>
</filter>
</defs>
</svg>
